G04 #@! TF.FileFunction,Copper,L1,Top,Signal*
%FSLAX46Y46*%
G04 Gerber Fmt 4.6, Leading zero omitted, Abs format (unit mm)*
G04 Created by KiCad (PCBNEW (after 2015-may-25 BZR unknown)-product) date 6/28/2015 12:11:07 AM*
%MOMM*%
G01*
G04 APERTURE LIST*
%ADD10C,0.100000*%
%ADD11R,1.250000X1.000000*%
%ADD12R,1.198880X1.198880*%
%ADD13R,2.286000X1.574800*%
%ADD14O,2.286000X1.574800*%
%ADD15R,2.032000X3.657600*%
%ADD16R,2.032000X1.016000*%
%ADD17R,1.200000X2.000000*%
%ADD18C,1.000000*%
%ADD19C,0.500000*%
%ADD20C,0.250000*%
G04 APERTURE END LIST*
D10*
D11*
X40132000Y-37608000D03*
X40132000Y-39608000D03*
X55499000Y-45863000D03*
X55499000Y-47863000D03*
D12*
X70358000Y-48039020D03*
X70358000Y-45940980D03*
D13*
X75184000Y-35306000D03*
D14*
X75184000Y-37846000D03*
X75184000Y-40386000D03*
X75184000Y-42926000D03*
X75184000Y-45466000D03*
X75184000Y-48006000D03*
X75184000Y-50546000D03*
X75184000Y-53086000D03*
X75184000Y-55626000D03*
X75184000Y-58166000D03*
X75184000Y-60706000D03*
X75184000Y-63246000D03*
X59944000Y-63246000D03*
X59944000Y-60706000D03*
X59944000Y-58166000D03*
X59944000Y-55626000D03*
X59944000Y-53086000D03*
X59944000Y-50546000D03*
X59944000Y-48006000D03*
X59944000Y-45466000D03*
X59944000Y-42926000D03*
X59944000Y-40386000D03*
X59944000Y-37846000D03*
X59944000Y-35306000D03*
D15*
X44704000Y-39370000D03*
D16*
X51308000Y-39370000D03*
X51308000Y-37084000D03*
X51308000Y-41656000D03*
D17*
X34973260Y-63860680D03*
X37058600Y-63858140D03*
X39110920Y-63845440D03*
X41175940Y-63860680D03*
X43284140Y-63853060D03*
X45344080Y-63853060D03*
X47363380Y-63853060D03*
X49486820Y-63850520D03*
X49494440Y-47172880D03*
X47381160Y-47170340D03*
X45372020Y-47152560D03*
X43263820Y-47172880D03*
X41114980Y-47160180D03*
X39110920Y-47157640D03*
X37106860Y-47165260D03*
X34935160Y-47157640D03*
D18*
X40132000Y-37608000D02*
X40132000Y-34671000D01*
X40259000Y-34798000D02*
X49276000Y-34798000D01*
X40132000Y-34671000D02*
X40259000Y-34798000D01*
X51308000Y-37084000D02*
X54991000Y-37084000D01*
X55118000Y-36957000D02*
X55118000Y-34798000D01*
X54991000Y-37084000D02*
X55118000Y-36957000D01*
D19*
X51308000Y-34798000D02*
X51308000Y-34798000D01*
D20*
X49022000Y-34544000D02*
X49276000Y-34798000D01*
D18*
X49276000Y-34798000D02*
X51308000Y-34798000D01*
D20*
X40132000Y-37608000D02*
X40132000Y-35560000D01*
X59944000Y-34798000D02*
X59944000Y-35306000D01*
D18*
X59182000Y-34798000D02*
X59944000Y-34798000D01*
X51308000Y-34798000D02*
X55118000Y-34798000D01*
X55118000Y-34798000D02*
X59182000Y-34798000D01*
X36322000Y-41656000D02*
X36449000Y-41656000D01*
X36449000Y-41656000D02*
X37719000Y-42926000D01*
X36322000Y-34544000D02*
X38227000Y-32639000D01*
X37973000Y-32766000D02*
X37973000Y-32639000D01*
X38100000Y-32639000D02*
X37973000Y-32766000D01*
X38227000Y-32639000D02*
X38100000Y-32639000D01*
X36322000Y-36576000D02*
X36322000Y-41656000D01*
X71628000Y-40386000D02*
X70104000Y-40386000D01*
X70104000Y-40386000D02*
X67564000Y-37846000D01*
X67564000Y-37846000D02*
X67564000Y-34544000D01*
X67564000Y-34544000D02*
X65278000Y-32639000D01*
X65278000Y-32639000D02*
X37973000Y-32639000D01*
X36322000Y-34544000D02*
X36322000Y-36576000D01*
X37719000Y-42926000D02*
X40386000Y-42926000D01*
X49494440Y-47172880D02*
X51109880Y-47172880D01*
X51109880Y-47172880D02*
X53975000Y-50038000D01*
X53975000Y-50038000D02*
X55372000Y-50038000D01*
X55372000Y-50038000D02*
X55753000Y-49657000D01*
X55753000Y-49657000D02*
X55753000Y-48117000D01*
D19*
X55753000Y-48117000D02*
X55499000Y-47863000D01*
D18*
X58674000Y-37846000D02*
X59944000Y-37846000D01*
X55499000Y-47863000D02*
X55515000Y-47863000D01*
X68072000Y-37846000D02*
X70612000Y-40386000D01*
X70612000Y-40386000D02*
X75184000Y-40386000D01*
X59944000Y-37846000D02*
X68072000Y-37846000D01*
X75184000Y-40386000D02*
X71628000Y-40386000D01*
X70358000Y-44450000D02*
X71628000Y-43180000D01*
X71628000Y-43180000D02*
X71628000Y-40386000D01*
X70358000Y-45940980D02*
X70358000Y-44450000D01*
X53848000Y-41910000D02*
X53594000Y-41656000D01*
X53848000Y-43688000D02*
X53848000Y-41910000D01*
X53594000Y-43942000D02*
X53848000Y-43688000D01*
X50800000Y-43942000D02*
X53594000Y-43942000D01*
X50292000Y-44450000D02*
X50800000Y-43942000D01*
X53594000Y-41656000D02*
X51308000Y-41656000D01*
X49494440Y-45247560D02*
X50292000Y-44450000D01*
X49494440Y-47172880D02*
X49494440Y-45247560D01*
X40132000Y-42672000D02*
X40386000Y-42926000D01*
X40132000Y-39608000D02*
X40132000Y-42672000D01*
X40386000Y-42926000D02*
X41910000Y-44450000D01*
X41910000Y-44450000D02*
X45466000Y-44450000D01*
X45466000Y-44450000D02*
X50292000Y-44450000D01*
X45466000Y-47058580D02*
X45372020Y-47152560D01*
X45466000Y-44450000D02*
X45466000Y-47058580D01*
X64646103Y-65427446D02*
X65382554Y-65427446D01*
X65382554Y-65427446D02*
X67564000Y-63246000D01*
X53467000Y-39370000D02*
X55499000Y-39370000D01*
X51308000Y-39370000D02*
X53467000Y-39370000D01*
X56642000Y-41783000D02*
X56642000Y-42545000D01*
X56007000Y-41148000D02*
X56642000Y-41783000D01*
X56007000Y-39878000D02*
X56007000Y-41148000D01*
X55499000Y-39370000D02*
X56007000Y-39878000D01*
X56642000Y-42545000D02*
X56642000Y-43053000D01*
X56642000Y-43053000D02*
X55626000Y-44069000D01*
X55626000Y-44069000D02*
X55626000Y-45736000D01*
D19*
X55626000Y-45736000D02*
X55499000Y-45863000D01*
D18*
X57277000Y-43180000D02*
X59690000Y-43180000D01*
X56642000Y-42545000D02*
X57277000Y-43180000D01*
D19*
X59690000Y-43180000D02*
X59944000Y-42926000D01*
D20*
X55499000Y-45593000D02*
X55769000Y-45863000D01*
D18*
X55769000Y-45863000D02*
X55499000Y-45863000D01*
X51054000Y-65532000D02*
X64646103Y-65427446D01*
X67564000Y-63246000D02*
X67564000Y-53213000D01*
D19*
X67564000Y-53213000D02*
X67945000Y-52959000D01*
D18*
X67945000Y-52959000D02*
X67945000Y-50673000D01*
X67945000Y-50673000D02*
X66040000Y-47498000D01*
X66040000Y-47498000D02*
X66040000Y-45466000D01*
X66040000Y-45466000D02*
X63500000Y-42926000D01*
X63500000Y-42926000D02*
X59944000Y-42926000D01*
X49626520Y-63850520D02*
X51054000Y-65532000D01*
D20*
X49486820Y-63850520D02*
X49626520Y-63850520D01*
D18*
X70358000Y-48039020D02*
X70358000Y-50546000D01*
X70358000Y-50546000D02*
X75184000Y-50546000D01*
X69469000Y-67310000D02*
X69469000Y-67183000D01*
X69469000Y-67183000D02*
X70866000Y-65786000D01*
D19*
X73406000Y-58166000D02*
X75184000Y-58166000D01*
X70866000Y-58547000D02*
X73406000Y-58166000D01*
X70866000Y-64389000D02*
X70866000Y-58547000D01*
X70866000Y-65786000D02*
X70866000Y-64389000D01*
X37033200Y-67310000D02*
X69469000Y-67310000D01*
X37058600Y-67284600D02*
X37033200Y-67310000D01*
X37058600Y-63858140D02*
X37058600Y-67284600D01*
X58674000Y-63246000D02*
X59944000Y-63246000D01*
X37106860Y-53594000D02*
X37106860Y-53616860D01*
X37106860Y-47165260D02*
X37106860Y-53594000D01*
X37106860Y-54886860D02*
X38100000Y-55880000D01*
X38100000Y-55880000D02*
X41148000Y-55880000D01*
X41148000Y-55880000D02*
X44450000Y-59182000D01*
X44450000Y-59182000D02*
X50038000Y-59182000D01*
X50038000Y-59182000D02*
X54102000Y-63246000D01*
X54102000Y-63246000D02*
X59944000Y-63246000D01*
X37106860Y-53594000D02*
X37106860Y-54886860D01*
D20*
X59436000Y-60198000D02*
X59944000Y-60706000D01*
D19*
X41904920Y-53842920D02*
X44450000Y-56388000D01*
X44450000Y-56388000D02*
X52324000Y-56388000D01*
X52324000Y-56388000D02*
X56642000Y-60706000D01*
X56642000Y-60706000D02*
X59944000Y-60706000D01*
X39110920Y-53334920D02*
X39110920Y-53842920D01*
X39110920Y-47157640D02*
X39110920Y-53334920D01*
X39110920Y-53842920D02*
X41904920Y-53842920D01*
X56896000Y-58166000D02*
X52832000Y-54102000D01*
X52832000Y-54102000D02*
X44704000Y-54102000D01*
X44704000Y-54102000D02*
X41114980Y-50512980D01*
X41114980Y-50512980D02*
X41114980Y-47160180D01*
X59944000Y-58166000D02*
X56896000Y-58166000D01*
M02*
