M48
;DRILL file {KiCad (after 2015-may-25 BZR unknown)-product} date 6/28/2015 12:40:15 AM
;FORMAT={-:-/ absolute / metric / decimal}
FMAT,2
METRIC,TZ
T1C0.400
T2C0.813
%
G90
G05
M71
T1
X23.495Y24.003
T2
X36.068Y33.274
X36.068Y30.734
X36.068Y28.194
X36.068Y25.654
X36.068Y23.114
X36.068Y20.574
X36.068Y18.034
X36.068Y15.494
X36.068Y12.954
X36.068Y10.414
X36.068Y7.874
X36.068Y5.334
X51.308Y33.274
X51.308Y30.734
X51.308Y28.194
X51.308Y25.654
X51.308Y23.114
X51.308Y20.574
X51.308Y18.034
X51.308Y15.494
X51.308Y12.954
X51.308Y10.414
X51.308Y7.874
X51.308Y5.334
T0
M30
