G04 #@! TF.FileFunction,Copper,L2,Bot,Signal*
%FSLAX46Y46*%
G04 Gerber Fmt 4.6, Leading zero omitted, Abs format (unit mm)*
G04 Created by KiCad (PCBNEW (after 2015-may-25 BZR unknown)-product) date 6/17/2015 12:04:09 AM*
%MOMM*%
G01*
G04 APERTURE LIST*
%ADD10C,0.100000*%
%ADD11R,2.032000X2.032000*%
%ADD12O,2.032000X2.032000*%
%ADD13R,1.727200X1.727200*%
%ADD14O,1.727200X1.727200*%
%ADD15R,2.032000X1.727200*%
%ADD16O,2.032000X1.727200*%
%ADD17C,1.000000*%
%ADD18C,0.600000*%
%ADD19C,0.350000*%
%ADD20C,0.250000*%
%ADD21C,0.500000*%
%ADD22C,0.254000*%
G04 APERTURE END LIST*
D10*
D11*
X24955500Y-25019000D03*
D12*
X24955500Y-22479000D03*
D11*
X46482000Y-21209000D03*
D12*
X46482000Y-23749000D03*
D13*
X34417000Y-34036000D03*
D14*
X34417000Y-31496000D03*
X36957000Y-34036000D03*
X36957000Y-31496000D03*
X39497000Y-34036000D03*
X39497000Y-31496000D03*
X42037000Y-34036000D03*
X42037000Y-31496000D03*
D13*
X31750000Y-41402000D03*
D14*
X29210000Y-41402000D03*
X31750000Y-38862000D03*
X29210000Y-38862000D03*
D11*
X46228000Y-32639000D03*
D12*
X46228000Y-30099000D03*
D15*
X25273000Y-36068000D03*
D16*
X25273000Y-38608000D03*
X25273000Y-41148000D03*
D15*
X46101000Y-36512500D03*
D16*
X46101000Y-39052500D03*
X46101000Y-41592500D03*
D13*
X28321000Y-30734000D03*
D14*
X30861000Y-30734000D03*
X28321000Y-33274000D03*
X30861000Y-33274000D03*
D17*
X38227000Y-38100000D03*
X38227000Y-36576000D03*
X41021000Y-38354000D03*
X40894000Y-36703000D03*
D18*
X32766000Y-18542000D03*
X38227000Y-23241000D03*
X24511000Y-20574000D03*
X25039000Y-19050000D03*
X27114500Y-25781000D03*
X35687000Y-25654000D03*
D17*
X46545500Y-19050000D03*
D19*
X38227000Y-36576000D02*
X38227000Y-38100000D01*
X40894000Y-36703000D02*
X40767000Y-36830000D01*
X39497000Y-34036000D02*
X39497000Y-38354000D01*
X40893206Y-39496206D02*
X45847000Y-39433500D01*
X39751000Y-38354000D02*
X40893206Y-39496206D01*
X39497000Y-38354000D02*
X39751000Y-38354000D01*
X36957000Y-34036000D02*
X36957000Y-38100000D01*
X36957000Y-41592050D02*
X45847000Y-41529000D01*
X36957000Y-38100000D02*
X36957000Y-41592050D01*
X42037000Y-31496000D02*
X41783000Y-31496000D01*
X28321000Y-36957000D02*
X27178000Y-38100000D01*
X27178000Y-38100000D02*
X27178000Y-40386000D01*
X27178000Y-40386000D02*
X26416000Y-41148000D01*
X26416000Y-41148000D02*
X25273000Y-41148000D01*
X41783000Y-31496000D02*
X40513000Y-32766000D01*
X35560000Y-36830000D02*
X28321000Y-36830000D01*
X35687000Y-36449000D02*
X35560000Y-36830000D01*
D20*
X35687000Y-33020000D02*
X35687000Y-36449000D01*
D19*
X35941000Y-32766000D02*
X35687000Y-33020000D01*
X40513000Y-32766000D02*
X35941000Y-32766000D01*
X28321000Y-36830000D02*
X28321000Y-36957000D01*
X36957000Y-29718000D02*
X36576000Y-29337000D01*
X36576000Y-29337000D02*
X25781000Y-29337000D01*
X25781000Y-29337000D02*
X25146000Y-29972000D01*
X25146000Y-29972000D02*
X25146000Y-30734000D01*
X36957000Y-31496000D02*
X36957000Y-29718000D01*
X33909000Y-32004000D02*
X34417000Y-31496000D01*
X26162000Y-32639000D02*
X26797000Y-32004000D01*
X26797000Y-32004000D02*
X33909000Y-32004000D01*
X25146000Y-32639000D02*
X26162000Y-32639000D01*
D21*
X32766000Y-18542000D02*
X33147000Y-18923000D01*
X33147000Y-18923000D02*
X34925000Y-18923000D01*
X34925000Y-18923000D02*
X34925000Y-19177000D01*
X34925000Y-19177000D02*
X34925000Y-22860000D01*
X34925000Y-22860000D02*
X35560000Y-23241000D01*
X35560000Y-23241000D02*
X38227000Y-23241000D01*
D22*
G36*
X47702000Y-27435458D02*
X46407116Y-27441997D01*
X46331368Y-27328632D01*
X46109138Y-27180143D01*
X45847000Y-27128000D01*
X26094025Y-27128000D01*
X26192327Y-27029699D01*
X26289000Y-26796310D01*
X26289000Y-26543691D01*
X26289000Y-25939750D01*
X26130250Y-25781000D01*
X24765000Y-25781000D01*
X24765000Y-27146250D01*
X24923750Y-27305000D01*
X25077999Y-27305000D01*
X25042632Y-27328632D01*
X24894285Y-27550648D01*
X23672000Y-27556821D01*
X23672000Y-27305000D01*
X24352250Y-27305000D01*
X24511000Y-27146250D01*
X24511000Y-25781000D01*
X24491000Y-25781000D01*
X24491000Y-25527000D01*
X24511000Y-25527000D01*
X24511000Y-25507000D01*
X24765000Y-25507000D01*
X24765000Y-25527000D01*
X26130250Y-25527000D01*
X26289000Y-25368250D01*
X26289000Y-24764309D01*
X26289000Y-24511690D01*
X26192327Y-24278301D01*
X26013698Y-24099673D01*
X25971034Y-24082001D01*
X26195670Y-23745810D01*
X26321345Y-23114000D01*
X26195670Y-22482190D01*
X25837778Y-21946567D01*
X25302155Y-21588675D01*
X24670345Y-21463000D01*
X24605655Y-21463000D01*
X23973845Y-21588675D01*
X23672000Y-21790361D01*
X23672000Y-18338000D01*
X32028576Y-18338000D01*
X31973808Y-18392673D01*
X31831162Y-18736201D01*
X31830838Y-19108167D01*
X31972883Y-19451943D01*
X32235673Y-19715192D01*
X32538370Y-19840883D01*
X32574243Y-19876756D01*
X32574244Y-19876756D01*
X32705635Y-19964549D01*
X32837026Y-20052342D01*
X32837027Y-20052342D01*
X33147000Y-20114000D01*
X34115000Y-20114000D01*
X34115000Y-23241000D01*
X34134361Y-23338334D01*
X34139185Y-23437454D01*
X34164908Y-23491906D01*
X34176658Y-23550974D01*
X34231791Y-23633487D01*
X34274181Y-23723218D01*
X34318786Y-23763683D01*
X34352244Y-23813756D01*
X34434755Y-23868888D01*
X34508258Y-23935569D01*
X35143259Y-24316569D01*
X35199951Y-24336883D01*
X35250026Y-24370342D01*
X35347361Y-24389703D01*
X35440782Y-24423178D01*
X35500932Y-24420250D01*
X35560000Y-24432000D01*
X37739559Y-24432000D01*
X38040201Y-24556838D01*
X38412167Y-24557162D01*
X38755943Y-24415117D01*
X39019192Y-24152327D01*
X39161838Y-23808799D01*
X39162162Y-23436833D01*
X39020117Y-23093057D01*
X38757327Y-22829808D01*
X38413799Y-22687162D01*
X38041833Y-22686838D01*
X37738917Y-22812000D01*
X35784357Y-22812000D01*
X35735000Y-22782385D01*
X35735000Y-19558000D01*
X35735000Y-19304000D01*
X35673342Y-18994026D01*
X35497756Y-18731244D01*
X35234974Y-18555658D01*
X34925000Y-18494000D01*
X33600412Y-18494000D01*
X33559117Y-18394057D01*
X33503157Y-18338000D01*
X47702000Y-18338000D01*
X47702000Y-19590180D01*
X47624309Y-19558000D01*
X46767750Y-19558000D01*
X46609000Y-19716750D01*
X46609000Y-21082000D01*
X46629000Y-21082000D01*
X46629000Y-21336000D01*
X46609000Y-21336000D01*
X46609000Y-21356000D01*
X46355000Y-21356000D01*
X46355000Y-21336000D01*
X46355000Y-21082000D01*
X46355000Y-19716750D01*
X46196250Y-19558000D01*
X45339691Y-19558000D01*
X45106302Y-19654673D01*
X44927673Y-19833301D01*
X44831000Y-20066690D01*
X44831000Y-20319309D01*
X44831000Y-20923250D01*
X44989750Y-21082000D01*
X46355000Y-21082000D01*
X46355000Y-21336000D01*
X44989750Y-21336000D01*
X44831000Y-21494750D01*
X44831000Y-22098691D01*
X44831000Y-22351310D01*
X44927673Y-22584699D01*
X45106302Y-22763327D01*
X45148965Y-22780998D01*
X44924330Y-23117190D01*
X44798655Y-23749000D01*
X44924330Y-24380810D01*
X45282222Y-24916433D01*
X45817845Y-25274325D01*
X46449655Y-25400000D01*
X46514345Y-25400000D01*
X47146155Y-25274325D01*
X47681778Y-24916433D01*
X47702000Y-24886168D01*
X47702000Y-27435458D01*
X47702000Y-27435458D01*
G37*
X47702000Y-27435458D02*
X46407116Y-27441997D01*
X46331368Y-27328632D01*
X46109138Y-27180143D01*
X45847000Y-27128000D01*
X26094025Y-27128000D01*
X26192327Y-27029699D01*
X26289000Y-26796310D01*
X26289000Y-26543691D01*
X26289000Y-25939750D01*
X26130250Y-25781000D01*
X24765000Y-25781000D01*
X24765000Y-27146250D01*
X24923750Y-27305000D01*
X25077999Y-27305000D01*
X25042632Y-27328632D01*
X24894285Y-27550648D01*
X23672000Y-27556821D01*
X23672000Y-27305000D01*
X24352250Y-27305000D01*
X24511000Y-27146250D01*
X24511000Y-25781000D01*
X24491000Y-25781000D01*
X24491000Y-25527000D01*
X24511000Y-25527000D01*
X24511000Y-25507000D01*
X24765000Y-25507000D01*
X24765000Y-25527000D01*
X26130250Y-25527000D01*
X26289000Y-25368250D01*
X26289000Y-24764309D01*
X26289000Y-24511690D01*
X26192327Y-24278301D01*
X26013698Y-24099673D01*
X25971034Y-24082001D01*
X26195670Y-23745810D01*
X26321345Y-23114000D01*
X26195670Y-22482190D01*
X25837778Y-21946567D01*
X25302155Y-21588675D01*
X24670345Y-21463000D01*
X24605655Y-21463000D01*
X23973845Y-21588675D01*
X23672000Y-21790361D01*
X23672000Y-18338000D01*
X32028576Y-18338000D01*
X31973808Y-18392673D01*
X31831162Y-18736201D01*
X31830838Y-19108167D01*
X31972883Y-19451943D01*
X32235673Y-19715192D01*
X32538370Y-19840883D01*
X32574243Y-19876756D01*
X32574244Y-19876756D01*
X32705635Y-19964549D01*
X32837026Y-20052342D01*
X32837027Y-20052342D01*
X33147000Y-20114000D01*
X34115000Y-20114000D01*
X34115000Y-23241000D01*
X34134361Y-23338334D01*
X34139185Y-23437454D01*
X34164908Y-23491906D01*
X34176658Y-23550974D01*
X34231791Y-23633487D01*
X34274181Y-23723218D01*
X34318786Y-23763683D01*
X34352244Y-23813756D01*
X34434755Y-23868888D01*
X34508258Y-23935569D01*
X35143259Y-24316569D01*
X35199951Y-24336883D01*
X35250026Y-24370342D01*
X35347361Y-24389703D01*
X35440782Y-24423178D01*
X35500932Y-24420250D01*
X35560000Y-24432000D01*
X37739559Y-24432000D01*
X38040201Y-24556838D01*
X38412167Y-24557162D01*
X38755943Y-24415117D01*
X39019192Y-24152327D01*
X39161838Y-23808799D01*
X39162162Y-23436833D01*
X39020117Y-23093057D01*
X38757327Y-22829808D01*
X38413799Y-22687162D01*
X38041833Y-22686838D01*
X37738917Y-22812000D01*
X35784357Y-22812000D01*
X35735000Y-22782385D01*
X35735000Y-19558000D01*
X35735000Y-19304000D01*
X35673342Y-18994026D01*
X35497756Y-18731244D01*
X35234974Y-18555658D01*
X34925000Y-18494000D01*
X33600412Y-18494000D01*
X33559117Y-18394057D01*
X33503157Y-18338000D01*
X47702000Y-18338000D01*
X47702000Y-19590180D01*
X47624309Y-19558000D01*
X46767750Y-19558000D01*
X46609000Y-19716750D01*
X46609000Y-21082000D01*
X46629000Y-21082000D01*
X46629000Y-21336000D01*
X46609000Y-21336000D01*
X46609000Y-21356000D01*
X46355000Y-21356000D01*
X46355000Y-21336000D01*
X46355000Y-21082000D01*
X46355000Y-19716750D01*
X46196250Y-19558000D01*
X45339691Y-19558000D01*
X45106302Y-19654673D01*
X44927673Y-19833301D01*
X44831000Y-20066690D01*
X44831000Y-20319309D01*
X44831000Y-20923250D01*
X44989750Y-21082000D01*
X46355000Y-21082000D01*
X46355000Y-21336000D01*
X44989750Y-21336000D01*
X44831000Y-21494750D01*
X44831000Y-22098691D01*
X44831000Y-22351310D01*
X44927673Y-22584699D01*
X45106302Y-22763327D01*
X45148965Y-22780998D01*
X44924330Y-23117190D01*
X44798655Y-23749000D01*
X44924330Y-24380810D01*
X45282222Y-24916433D01*
X45817845Y-25274325D01*
X46449655Y-25400000D01*
X46514345Y-25400000D01*
X47146155Y-25274325D01*
X47681778Y-24916433D01*
X47702000Y-24886168D01*
X47702000Y-27435458D01*
M02*
