M48
;DRILL file {KiCad (after 2015-may-25 BZR unknown)-product} date 6/17/2015 12:04:11 AM
;FORMAT={-:-/ absolute / metric / decimal}
FMAT,2
METRIC,TZ
T1C0.800
T2C1.016
%
G90
G05
M71
T1
X24.511Y-20.574
X25.039Y-19.05
X27.114Y-25.781
X32.766Y-18.542
X35.687Y-25.654
X38.227Y-23.241
X38.227Y-36.576
X38.227Y-38.1
X40.894Y-36.703
X41.021Y-38.354
X46.545Y-19.05
T2
X24.955Y-22.479
X24.955Y-25.019
X25.273Y-36.068
X25.273Y-38.608
X25.273Y-41.148
X28.321Y-30.734
X28.321Y-33.274
X29.21Y-38.862
X29.21Y-41.402
X30.861Y-30.734
X30.861Y-33.274
X31.75Y-38.862
X31.75Y-41.402
X34.417Y-31.496
X34.417Y-34.036
X36.957Y-31.496
X36.957Y-34.036
X39.497Y-31.496
X39.497Y-34.036
X42.037Y-31.496
X42.037Y-34.036
X46.101Y-36.512
X46.101Y-39.052
X46.101Y-41.593
X46.228Y-30.099
X46.228Y-32.639
X46.482Y-21.209
X46.482Y-23.749
T0
M30
