G04 #@! TF.FileFunction,Legend,Bot*
%FSLAX46Y46*%
G04 Gerber Fmt 4.6, Leading zero omitted, Abs format (unit mm)*
G04 Created by KiCad (PCBNEW (after 2015-may-25 BZR unknown)-product) date 6/17/2015 12:04:09 AM*
%MOMM*%
G01*
G04 APERTURE LIST*
%ADD10C,0.100000*%
%ADD11C,0.300000*%
G04 APERTURE END LIST*
D10*
D11*
X44330285Y-25546857D02*
X44115999Y-25618286D01*
X44044571Y-25689714D01*
X43973142Y-25832571D01*
X43973142Y-26046857D01*
X44044571Y-26189714D01*
X44115999Y-26261143D01*
X44258857Y-26332571D01*
X44830285Y-26332571D01*
X44830285Y-24832571D01*
X44330285Y-24832571D01*
X44187428Y-24904000D01*
X44115999Y-24975429D01*
X44044571Y-25118286D01*
X44044571Y-25261143D01*
X44115999Y-25404000D01*
X44187428Y-25475429D01*
X44330285Y-25546857D01*
X44830285Y-25546857D01*
X43115999Y-26332571D02*
X43258857Y-26261143D01*
X43330285Y-26189714D01*
X43401714Y-26046857D01*
X43401714Y-25618286D01*
X43330285Y-25475429D01*
X43258857Y-25404000D01*
X43115999Y-25332571D01*
X42901714Y-25332571D01*
X42758857Y-25404000D01*
X42687428Y-25475429D01*
X42615999Y-25618286D01*
X42615999Y-26046857D01*
X42687428Y-26189714D01*
X42758857Y-26261143D01*
X42901714Y-26332571D01*
X43115999Y-26332571D01*
X41758856Y-26332571D02*
X41901714Y-26261143D01*
X41973142Y-26189714D01*
X42044571Y-26046857D01*
X42044571Y-25618286D01*
X41973142Y-25475429D01*
X41901714Y-25404000D01*
X41758856Y-25332571D01*
X41544571Y-25332571D01*
X41401714Y-25404000D01*
X41330285Y-25475429D01*
X41258856Y-25618286D01*
X41258856Y-26046857D01*
X41330285Y-26189714D01*
X41401714Y-26261143D01*
X41544571Y-26332571D01*
X41758856Y-26332571D01*
X40687428Y-26261143D02*
X40544571Y-26332571D01*
X40258856Y-26332571D01*
X40115999Y-26261143D01*
X40044571Y-26118286D01*
X40044571Y-26046857D01*
X40115999Y-25904000D01*
X40258856Y-25832571D01*
X40473142Y-25832571D01*
X40615999Y-25761143D01*
X40687428Y-25618286D01*
X40687428Y-25546857D01*
X40615999Y-25404000D01*
X40473142Y-25332571D01*
X40258856Y-25332571D01*
X40115999Y-25404000D01*
X39615999Y-25332571D02*
X39044570Y-25332571D01*
X39401713Y-24832571D02*
X39401713Y-26118286D01*
X39330285Y-26261143D01*
X39187427Y-26332571D01*
X39044570Y-26332571D01*
X37544570Y-25332571D02*
X37187427Y-26332571D01*
X36830285Y-25332571D01*
X35973142Y-24832571D02*
X35830285Y-24832571D01*
X35687428Y-24904000D01*
X35615999Y-24975429D01*
X35544570Y-25118286D01*
X35473142Y-25404000D01*
X35473142Y-25761143D01*
X35544570Y-26046857D01*
X35615999Y-26189714D01*
X35687428Y-26261143D01*
X35830285Y-26332571D01*
X35973142Y-26332571D01*
X36115999Y-26261143D01*
X36187428Y-26189714D01*
X36258856Y-26046857D01*
X36330285Y-25761143D01*
X36330285Y-25404000D01*
X36258856Y-25118286D01*
X36187428Y-24975429D01*
X36115999Y-24904000D01*
X35973142Y-24832571D01*
X34830285Y-26189714D02*
X34758857Y-26261143D01*
X34830285Y-26332571D01*
X34901714Y-26261143D01*
X34830285Y-26189714D01*
X34830285Y-26332571D01*
X33330285Y-26332571D02*
X34187428Y-26332571D01*
X33758856Y-26332571D02*
X33758856Y-24832571D01*
X33901713Y-25046857D01*
X34044571Y-25189714D01*
X34187428Y-25261143D01*
X44767428Y-31095143D02*
X43624571Y-31095143D01*
X44196000Y-31666571D02*
X44196000Y-30523714D01*
X42862428Y-38588143D02*
X41719571Y-38588143D01*
X38925428Y-39731143D02*
X37782571Y-39731143D01*
X38354000Y-40302571D02*
X38354000Y-39159714D01*
M02*
