G04 #@! TF.FileFunction,Copper,L1,Top,Signal*
%FSLAX46Y46*%
G04 Gerber Fmt 4.6, Leading zero omitted, Abs format (unit mm)*
G04 Created by KiCad (PCBNEW (after 2015-may-25 BZR unknown)-product) date 6/17/2015 12:04:09 AM*
%MOMM*%
G01*
G04 APERTURE LIST*
%ADD10C,0.100000*%
%ADD11R,1.501140X5.300980*%
%ADD12R,1.500000X1.250000*%
%ADD13R,2.032000X2.032000*%
%ADD14O,2.032000X2.032000*%
%ADD15R,1.300000X0.700000*%
%ADD16R,0.700000X1.300000*%
%ADD17R,0.650000X1.060000*%
%ADD18R,1.727200X1.727200*%
%ADD19O,1.727200X1.727200*%
%ADD20R,2.032000X1.727200*%
%ADD21O,2.032000X1.727200*%
%ADD22C,1.000000*%
%ADD23C,0.600000*%
%ADD24C,0.500000*%
%ADD25C,0.350000*%
%ADD26C,0.750000*%
%ADD27C,0.250000*%
G04 APERTURE END LIST*
D10*
D11*
X28702000Y-23749000D03*
X33020000Y-23749000D03*
D12*
X27539000Y-19050000D03*
X25039000Y-19050000D03*
X40660000Y-19812000D03*
X43160000Y-19812000D03*
D13*
X24955500Y-25019000D03*
D14*
X24955500Y-22479000D03*
D13*
X46482000Y-21209000D03*
D14*
X46482000Y-23749000D03*
D15*
X42672000Y-25207000D03*
X42672000Y-23307000D03*
D16*
X39304000Y-25019000D03*
X37404000Y-25019000D03*
D17*
X36134000Y-21547000D03*
X37084000Y-21547000D03*
X38034000Y-21547000D03*
X38034000Y-19347000D03*
X36134000Y-19347000D03*
X37084000Y-19347000D03*
D18*
X34417000Y-34036000D03*
D19*
X34417000Y-31496000D03*
X36957000Y-34036000D03*
X36957000Y-31496000D03*
X39497000Y-34036000D03*
X39497000Y-31496000D03*
X42037000Y-34036000D03*
X42037000Y-31496000D03*
D18*
X31750000Y-41402000D03*
D19*
X29210000Y-41402000D03*
X31750000Y-38862000D03*
X29210000Y-38862000D03*
D13*
X46228000Y-32639000D03*
D14*
X46228000Y-30099000D03*
D20*
X25273000Y-36068000D03*
D21*
X25273000Y-38608000D03*
X25273000Y-41148000D03*
D20*
X46101000Y-36512500D03*
D21*
X46101000Y-39052500D03*
X46101000Y-41592500D03*
D18*
X28321000Y-30734000D03*
D19*
X30861000Y-30734000D03*
X28321000Y-33274000D03*
X30861000Y-33274000D03*
D15*
X25146000Y-32573000D03*
X25146000Y-30673000D03*
D16*
X29149000Y-35814000D03*
X31049000Y-35814000D03*
D22*
X38227000Y-38100000D03*
X38227000Y-36576000D03*
X41021000Y-38354000D03*
X40894000Y-36703000D03*
D23*
X32766000Y-18542000D03*
X38227000Y-23241000D03*
X24511000Y-20574000D03*
X25039000Y-19050000D03*
X27114500Y-25781000D03*
X35687000Y-25654000D03*
D22*
X46545500Y-19050000D03*
D24*
X39497000Y-31496000D02*
X38227000Y-32766000D01*
D25*
X38227000Y-32766000D02*
X38227000Y-36576000D01*
X40894000Y-36703000D02*
X41021000Y-36830000D01*
X41021000Y-36830000D02*
X41021000Y-38354000D01*
X42037000Y-34036000D02*
X40894000Y-35179000D01*
X40894000Y-35179000D02*
X40894000Y-36703000D01*
X42418000Y-33655000D02*
X42037000Y-34036000D01*
D26*
X45974000Y-33274000D02*
X42418000Y-33655000D01*
X34417000Y-29972000D02*
X34417000Y-31496000D01*
D25*
X34163000Y-29718000D02*
X34417000Y-29972000D01*
X34290000Y-29718000D02*
X34163000Y-29718000D01*
D26*
X39624000Y-29718000D02*
X34290000Y-29718000D01*
X45212000Y-29718000D02*
X39624000Y-29718000D01*
X45974000Y-30099000D02*
X45212000Y-29718000D01*
D25*
X45974000Y-30734000D02*
X45974000Y-30099000D01*
X39624000Y-31369000D02*
X39497000Y-31496000D01*
D26*
X39624000Y-29718000D02*
X39624000Y-31369000D01*
D25*
X36957000Y-31496000D02*
X36957000Y-30861000D01*
X32512000Y-42164000D02*
X32004000Y-41656000D01*
X25908000Y-41148000D02*
X25273000Y-41148000D01*
X42037000Y-31496000D02*
X42037000Y-31750000D01*
X23368000Y-36068000D02*
X23368000Y-42799000D01*
X23368000Y-36068000D02*
X23368000Y-36068000D01*
X25273000Y-36068000D02*
X23368000Y-36068000D01*
X45974000Y-33274000D02*
X45466000Y-33274000D01*
X36703000Y-38481000D02*
X36957000Y-38227000D01*
X36957000Y-38227000D02*
X36957000Y-34036000D01*
X31750000Y-38862000D02*
X36703000Y-38481000D01*
X25908000Y-38608000D02*
X25273000Y-38608000D01*
X25654000Y-35687000D02*
X25273000Y-36068000D01*
X46037500Y-36766500D02*
X45910500Y-36893500D01*
D24*
X45974000Y-33274000D02*
X46037500Y-36766500D01*
X34671000Y-41021000D02*
X34290000Y-41402000D01*
X34290000Y-41402000D02*
X31750000Y-41402000D01*
D25*
X45466000Y-33274000D02*
X43434000Y-35687000D01*
D24*
X43434000Y-40513000D02*
X42926000Y-41021000D01*
X43434000Y-35687000D02*
X43434000Y-40513000D01*
X42926000Y-41021000D02*
X34671000Y-41021000D01*
X31750000Y-42672000D02*
X31877000Y-42799000D01*
D25*
X31877000Y-42799000D02*
X23368000Y-42799000D01*
D24*
X31750000Y-41402000D02*
X31750000Y-42672000D01*
D25*
X25273000Y-38608000D02*
X25527000Y-38608000D01*
X28260000Y-30673000D02*
X28321000Y-30734000D01*
X25146000Y-30673000D02*
X28260000Y-30673000D01*
X28067000Y-33274000D02*
X25273000Y-36068000D01*
X28321000Y-33274000D02*
X28067000Y-33274000D01*
X31303000Y-36068000D02*
X31049000Y-35814000D01*
X32385000Y-36068000D02*
X34417000Y-34036000D01*
X31303000Y-36068000D02*
X32385000Y-36068000D01*
X28895000Y-36068000D02*
X29149000Y-35814000D01*
X28067000Y-36068000D02*
X25527000Y-38608000D01*
X28895000Y-36068000D02*
X28067000Y-36068000D01*
D24*
X30480000Y-19050000D02*
X30861000Y-19050000D01*
X30861000Y-19050000D02*
X31369000Y-18542000D01*
X31369000Y-18542000D02*
X32766000Y-18542000D01*
X38227000Y-23241000D02*
X38034000Y-23048000D01*
X38034000Y-23048000D02*
X38034000Y-21547000D01*
X30861000Y-19304000D02*
X35923000Y-19558000D01*
D25*
X30480000Y-19050000D02*
X30861000Y-19177000D01*
X30861000Y-19177000D02*
X30861000Y-19304000D01*
D27*
X35923000Y-19558000D02*
X36134000Y-19347000D01*
X36093105Y-19306105D02*
X36134000Y-19347000D01*
D24*
X27178000Y-19050000D02*
X30543500Y-19240500D01*
X30543500Y-19240500D02*
X30480000Y-19050000D01*
X24955500Y-22098000D02*
X25781000Y-22733000D01*
X25781000Y-22733000D02*
X27178000Y-20975000D01*
X27178000Y-20975000D02*
X27178000Y-19050000D01*
D25*
X27539000Y-19050000D02*
X27559000Y-19050000D01*
D24*
X27559000Y-19050000D02*
X28702000Y-20193000D01*
X28702000Y-20193000D02*
X28702000Y-23749000D01*
X42672000Y-25207000D02*
X44643000Y-25207000D01*
X44643000Y-25207000D02*
X46482000Y-23368000D01*
D26*
X40660000Y-19812000D02*
X40660000Y-21102000D01*
X40660000Y-21102000D02*
X41275000Y-21717000D01*
X41275000Y-21717000D02*
X43561000Y-21717000D01*
X43561000Y-21717000D02*
X45085000Y-23241000D01*
X45085000Y-23241000D02*
X46355000Y-23241000D01*
D27*
X46355000Y-23241000D02*
X46482000Y-23368000D01*
D25*
X37084000Y-19347000D02*
X37084000Y-18288000D01*
X37084000Y-18288000D02*
X37211000Y-18288000D01*
D24*
X37211000Y-18288000D02*
X40259000Y-18288000D01*
X40259000Y-18288000D02*
X40660000Y-18816000D01*
X40660000Y-18816000D02*
X40660000Y-19812000D01*
D27*
X40660000Y-19812000D02*
X40535000Y-19812000D01*
D24*
X35560000Y-23749000D02*
X36134000Y-23175000D01*
X36134000Y-23175000D02*
X36134000Y-21547000D01*
X33020000Y-23749000D02*
X35560000Y-23749000D01*
D25*
X42672000Y-23307000D02*
X40960000Y-23307000D01*
X40960000Y-23307000D02*
X40767000Y-23500000D01*
X40767000Y-23500000D02*
X40767000Y-24765000D01*
X40767000Y-24765000D02*
X40513000Y-25019000D01*
X40513000Y-25019000D02*
X39304000Y-25019000D01*
X38034000Y-19347000D02*
X38946000Y-19347000D01*
X38946000Y-19347000D02*
X39304000Y-19705000D01*
X39304000Y-19705000D02*
X39304000Y-25019000D01*
D26*
X45339000Y-19812000D02*
X46355000Y-20828000D01*
X46355000Y-20828000D02*
X46482000Y-20828000D01*
D24*
X25039000Y-19050000D02*
X25039000Y-20046000D01*
X25039000Y-20046000D02*
X24511000Y-20574000D01*
D27*
X24955500Y-24638000D02*
X25971500Y-24638000D01*
D24*
X25971500Y-24638000D02*
X27114500Y-25781000D01*
X43160000Y-19812000D02*
X45339000Y-19812000D01*
D25*
X45339000Y-19812000D02*
X45466000Y-19812000D01*
D27*
X45466000Y-19812000D02*
X46482000Y-20828000D01*
D24*
X37084000Y-21547000D02*
X37084000Y-23368000D01*
X37084000Y-23368000D02*
X37404000Y-23688000D01*
X37404000Y-23688000D02*
X37404000Y-25019000D01*
X37404000Y-25019000D02*
X36322000Y-25019000D01*
X36322000Y-25019000D02*
X35687000Y-25654000D01*
X46482000Y-20828000D02*
X46418500Y-19177000D01*
D25*
X46418500Y-19177000D02*
X46545500Y-19050000D01*
D27*
X45466000Y-19812000D02*
X46482000Y-20828000D01*
M02*
