G04 #@! TF.FileFunction,Legend,Top*
%FSLAX46Y46*%
G04 Gerber Fmt 4.6, Leading zero omitted, Abs format (unit mm)*
G04 Created by KiCad (PCBNEW (after 2015-may-25 BZR unknown)-product) date 6/17/2015 12:04:09 AM*
%MOMM*%
G01*
G04 APERTURE LIST*
%ADD10C,0.100000*%
%ADD11C,0.200000*%
%ADD12C,0.300000*%
%ADD13C,0.150000*%
G04 APERTURE END LIST*
D10*
D11*
X29863286Y-36221143D02*
X29777572Y-36178286D01*
X29734715Y-36092571D01*
X29734715Y-35321143D01*
X30120429Y-35621143D02*
X30334715Y-36221143D01*
X30549001Y-35621143D01*
X24233215Y-29360762D02*
X24137977Y-29408381D01*
X23947500Y-29408381D01*
X23852262Y-29360762D01*
X23804643Y-29313143D01*
X23757024Y-29217905D01*
X23757024Y-28932190D01*
X23804643Y-28836952D01*
X23852262Y-28789333D01*
X23947500Y-28741714D01*
X24137977Y-28741714D01*
X24233215Y-28789333D01*
X24661786Y-29408381D02*
X24661786Y-28408381D01*
X25090358Y-29408381D02*
X25090358Y-28884571D01*
X25042739Y-28789333D01*
X24947501Y-28741714D01*
X24804643Y-28741714D01*
X24709405Y-28789333D01*
X24661786Y-28836952D01*
D12*
X37782572Y-39731143D02*
X38925429Y-39731143D01*
X38354000Y-40302571D02*
X38354000Y-39159714D01*
X43624572Y-30968143D02*
X44767429Y-30968143D01*
X44196000Y-31539571D02*
X44196000Y-30396714D01*
D11*
X42425905Y-36584000D02*
X42330667Y-36536381D01*
X42187810Y-36536381D01*
X42044952Y-36584000D01*
X41949714Y-36679238D01*
X41902095Y-36774476D01*
X41854476Y-36964952D01*
X41854476Y-37107810D01*
X41902095Y-37298286D01*
X41949714Y-37393524D01*
X42044952Y-37488762D01*
X42187810Y-37536381D01*
X42283048Y-37536381D01*
X42425905Y-37488762D01*
X42473524Y-37441143D01*
X42473524Y-37107810D01*
X42283048Y-37107810D01*
X41521143Y-42349000D02*
X41435429Y-42306143D01*
X41306858Y-42306143D01*
X41178286Y-42349000D01*
X41092572Y-42434714D01*
X41049715Y-42520429D01*
X41006858Y-42691857D01*
X41006858Y-42820429D01*
X41049715Y-42991857D01*
X41092572Y-43077571D01*
X41178286Y-43163286D01*
X41306858Y-43206143D01*
X41392572Y-43206143D01*
X41521143Y-43163286D01*
X41564000Y-43120429D01*
X41564000Y-42820429D01*
X41392572Y-42820429D01*
X41949715Y-43206143D02*
X41949715Y-42306143D01*
X42292572Y-42306143D01*
X42378286Y-42349000D01*
X42421143Y-42391857D01*
X42464000Y-42477571D01*
X42464000Y-42606143D01*
X42421143Y-42691857D01*
X42378286Y-42734714D01*
X42292572Y-42777571D01*
X41949715Y-42777571D01*
X43021143Y-42306143D02*
X43106858Y-42306143D01*
X43192572Y-42349000D01*
X43235429Y-42391857D01*
X43278286Y-42477571D01*
X43321143Y-42649000D01*
X43321143Y-42863286D01*
X43278286Y-43034714D01*
X43235429Y-43120429D01*
X43192572Y-43163286D01*
X43106858Y-43206143D01*
X43021143Y-43206143D01*
X42935429Y-43163286D01*
X42892572Y-43120429D01*
X42849715Y-43034714D01*
X42806858Y-42863286D01*
X42806858Y-42649000D01*
X42849715Y-42477571D01*
X42892572Y-42391857D01*
X42935429Y-42349000D01*
X43021143Y-42306143D01*
X40505143Y-39809000D02*
X40419429Y-39766143D01*
X40290858Y-39766143D01*
X40162286Y-39809000D01*
X40076572Y-39894714D01*
X40033715Y-39980429D01*
X39990858Y-40151857D01*
X39990858Y-40280429D01*
X40033715Y-40451857D01*
X40076572Y-40537571D01*
X40162286Y-40623286D01*
X40290858Y-40666143D01*
X40376572Y-40666143D01*
X40505143Y-40623286D01*
X40548000Y-40580429D01*
X40548000Y-40280429D01*
X40376572Y-40280429D01*
X40933715Y-40666143D02*
X40933715Y-39766143D01*
X41276572Y-39766143D01*
X41362286Y-39809000D01*
X41405143Y-39851857D01*
X41448000Y-39937571D01*
X41448000Y-40066143D01*
X41405143Y-40151857D01*
X41362286Y-40194714D01*
X41276572Y-40237571D01*
X40933715Y-40237571D01*
X41790858Y-39851857D02*
X41833715Y-39809000D01*
X41919429Y-39766143D01*
X42133715Y-39766143D01*
X42219429Y-39809000D01*
X42262286Y-39851857D01*
X42305143Y-39937571D01*
X42305143Y-40023286D01*
X42262286Y-40151857D01*
X41748000Y-40666143D01*
X42305143Y-40666143D01*
D13*
X23941857Y-30147143D02*
X23941857Y-30875714D01*
X23899000Y-30961429D01*
X23856143Y-31004286D01*
X23770428Y-31047143D01*
X23641857Y-31047143D01*
X23556143Y-31004286D01*
X23941857Y-30704286D02*
X23856143Y-30747143D01*
X23684714Y-30747143D01*
X23599000Y-30704286D01*
X23556143Y-30661429D01*
X23513286Y-30575714D01*
X23513286Y-30318571D01*
X23556143Y-30232857D01*
X23599000Y-30190000D01*
X23684714Y-30147143D01*
X23856143Y-30147143D01*
X23941857Y-30190000D01*
X23320429Y-32157143D02*
X23320429Y-31557143D01*
X23320429Y-31728571D02*
X23363286Y-31642857D01*
X23406143Y-31600000D01*
X23491857Y-31557143D01*
X23577572Y-31557143D01*
X23791857Y-32157143D02*
X24263286Y-31557143D01*
X23791857Y-31557143D02*
X24263286Y-32157143D01*
X23213286Y-32967143D02*
X23556143Y-32967143D01*
X23341858Y-32667143D02*
X23341858Y-33438571D01*
X23384715Y-33524286D01*
X23470429Y-33567143D01*
X23556143Y-33567143D01*
X23770429Y-33567143D02*
X24241858Y-32967143D01*
X23770429Y-32967143D02*
X24241858Y-33567143D01*
D12*
X46037572Y-25888143D02*
X47180429Y-25888143D01*
X46609000Y-26459571D02*
X46609000Y-25316714D01*
X27158143Y-25820428D02*
X27158143Y-24677571D01*
X27158143Y-22820428D02*
X27158143Y-21677571D01*
X27729571Y-22249000D02*
X26586714Y-22249000D01*
D13*
X30861000Y-21336000D02*
X32639000Y-21336000D01*
X32639000Y-21336000D02*
X33274000Y-21971000D01*
X33274000Y-21971000D02*
X33274000Y-25527000D01*
X33274000Y-25527000D02*
X32639000Y-26162000D01*
X32639000Y-26162000D02*
X29083000Y-26162000D01*
X29083000Y-26162000D02*
X28448000Y-25527000D01*
X28448000Y-25527000D02*
X28448000Y-21971000D01*
X28448000Y-21971000D02*
X29083000Y-21336000D01*
X29083000Y-21336000D02*
X30861000Y-21336000D01*
X25789000Y-19900000D02*
X26789000Y-19900000D01*
X26789000Y-18200000D02*
X25789000Y-18200000D01*
X42410000Y-18962000D02*
X41410000Y-18962000D01*
X41410000Y-20662000D02*
X42410000Y-20662000D01*
X23685500Y-23749000D02*
X23685500Y-21209000D01*
X23405500Y-26569000D02*
X23405500Y-25019000D01*
X23685500Y-23749000D02*
X26225500Y-23749000D01*
X26505500Y-25019000D02*
X26505500Y-26569000D01*
X26505500Y-26569000D02*
X23405500Y-26569000D01*
X26225500Y-23749000D02*
X26225500Y-21209000D01*
X26225500Y-21209000D02*
X23685500Y-21209000D01*
X47752000Y-22479000D02*
X47752000Y-25019000D01*
X48032000Y-19659000D02*
X48032000Y-21209000D01*
X47752000Y-22479000D02*
X45212000Y-22479000D01*
X44932000Y-21209000D02*
X44932000Y-19659000D01*
X44932000Y-19659000D02*
X48032000Y-19659000D01*
X45212000Y-22479000D02*
X45212000Y-25019000D01*
X45212000Y-25019000D02*
X47752000Y-25019000D01*
X43547000Y-23657000D02*
X43547000Y-24857000D01*
X41797000Y-24857000D02*
X41797000Y-23657000D01*
X37754000Y-24144000D02*
X38954000Y-24144000D01*
X38954000Y-25894000D02*
X37754000Y-25894000D01*
X35484000Y-20847000D02*
G75*
G03X35484000Y-20847000I-100000J0D01*
G01*
X35634000Y-20197000D02*
X35634000Y-20697000D01*
X38534000Y-20197000D02*
X35634000Y-20197000D01*
X38534000Y-20697000D02*
X38534000Y-20197000D01*
X35634000Y-20697000D02*
X38534000Y-20697000D01*
X35687000Y-35306000D02*
X43307000Y-35306000D01*
X43307000Y-35306000D02*
X43307000Y-30226000D01*
X43307000Y-30226000D02*
X33147000Y-30226000D01*
X33147000Y-30226000D02*
X33147000Y-32766000D01*
X32867000Y-34036000D02*
X32867000Y-35586000D01*
X33147000Y-32766000D02*
X35687000Y-32766000D01*
X35687000Y-32766000D02*
X35687000Y-35306000D01*
X32867000Y-35586000D02*
X34417000Y-35586000D01*
X33300000Y-41402000D02*
X33300000Y-42952000D01*
X31750000Y-42952000D02*
X33300000Y-42952000D01*
X33020000Y-40132000D02*
X30480000Y-40132000D01*
X30480000Y-40132000D02*
X30480000Y-42672000D01*
X30480000Y-42672000D02*
X27940000Y-42672000D01*
X27940000Y-42672000D02*
X27940000Y-37592000D01*
X27940000Y-37592000D02*
X33020000Y-37592000D01*
X33020000Y-37592000D02*
X33020000Y-40132000D01*
X44958000Y-31369000D02*
X44958000Y-28829000D01*
X44678000Y-34189000D02*
X44678000Y-32639000D01*
X44958000Y-31369000D02*
X47498000Y-31369000D01*
X47778000Y-32639000D02*
X47778000Y-34189000D01*
X47778000Y-34189000D02*
X44678000Y-34189000D01*
X47498000Y-31369000D02*
X47498000Y-28829000D01*
X47498000Y-28829000D02*
X44958000Y-28829000D01*
X24003000Y-37338000D02*
X24003000Y-42418000D01*
X24003000Y-42418000D02*
X26543000Y-42418000D01*
X26543000Y-42418000D02*
X26543000Y-37338000D01*
X26823000Y-34518000D02*
X26823000Y-36068000D01*
X26543000Y-37338000D02*
X24003000Y-37338000D01*
X23723000Y-36068000D02*
X23723000Y-34518000D01*
X23723000Y-34518000D02*
X26823000Y-34518000D01*
X44831000Y-37782500D02*
X44831000Y-42862500D01*
X44831000Y-42862500D02*
X47371000Y-42862500D01*
X47371000Y-42862500D02*
X47371000Y-37782500D01*
X47651000Y-34962500D02*
X47651000Y-36512500D01*
X47371000Y-37782500D02*
X44831000Y-37782500D01*
X44551000Y-36512500D02*
X44551000Y-34962500D01*
X44551000Y-34962500D02*
X47651000Y-34962500D01*
X26771000Y-30734000D02*
X26771000Y-29184000D01*
X28321000Y-29184000D02*
X26771000Y-29184000D01*
X27051000Y-32004000D02*
X29591000Y-32004000D01*
X29591000Y-32004000D02*
X29591000Y-29464000D01*
X29591000Y-29464000D02*
X32131000Y-29464000D01*
X32131000Y-29464000D02*
X32131000Y-34544000D01*
X32131000Y-34544000D02*
X27051000Y-34544000D01*
X27051000Y-34544000D02*
X27051000Y-32004000D01*
X26021000Y-31023000D02*
X26021000Y-32223000D01*
X24271000Y-32223000D02*
X24271000Y-31023000D01*
X30699000Y-36689000D02*
X29499000Y-36689000D01*
X29499000Y-34939000D02*
X30699000Y-34939000D01*
X30713941Y-24014726D02*
X30713941Y-24490917D01*
X29713941Y-24490917D01*
X30713941Y-23157583D02*
X30713941Y-23729012D01*
X30713941Y-23443298D02*
X29713941Y-23443298D01*
X29856798Y-23538536D01*
X29952036Y-23633774D01*
X29999655Y-23729012D01*
X29441000Y-20133429D02*
X29398143Y-20176286D01*
X29269572Y-20219143D01*
X29183858Y-20219143D01*
X29055286Y-20176286D01*
X28969572Y-20090571D01*
X28926715Y-20004857D01*
X28883858Y-19833429D01*
X28883858Y-19704857D01*
X28926715Y-19533429D01*
X28969572Y-19447714D01*
X29055286Y-19362000D01*
X29183858Y-19319143D01*
X29269572Y-19319143D01*
X29398143Y-19362000D01*
X29441000Y-19404857D01*
X30298143Y-20219143D02*
X29783858Y-20219143D01*
X30041000Y-20219143D02*
X30041000Y-19319143D01*
X29955286Y-19447714D01*
X29869572Y-19533429D01*
X29783858Y-19576286D01*
D11*
X44427000Y-18736429D02*
X44384143Y-18779286D01*
X44255572Y-18822143D01*
X44169858Y-18822143D01*
X44041286Y-18779286D01*
X43955572Y-18693571D01*
X43912715Y-18607857D01*
X43869858Y-18436429D01*
X43869858Y-18307857D01*
X43912715Y-18136429D01*
X43955572Y-18050714D01*
X44041286Y-17965000D01*
X44169858Y-17922143D01*
X44255572Y-17922143D01*
X44384143Y-17965000D01*
X44427000Y-18007857D01*
X44769858Y-18007857D02*
X44812715Y-17965000D01*
X44898429Y-17922143D01*
X45112715Y-17922143D01*
X45198429Y-17965000D01*
X45241286Y-18007857D01*
X45284143Y-18093571D01*
X45284143Y-18179286D01*
X45241286Y-18307857D01*
X44727000Y-18822143D01*
X45284143Y-18822143D01*
D13*
X26844691Y-24201381D02*
X26844691Y-23201381D01*
X27320881Y-24201381D02*
X27320881Y-23201381D01*
X27892310Y-24201381D01*
X27892310Y-23201381D01*
X43259500Y-25868381D02*
X43449977Y-25868381D01*
X43545215Y-25916000D01*
X43640453Y-26011238D01*
X43688072Y-26201714D01*
X43688072Y-26535048D01*
X43640453Y-26725524D01*
X43545215Y-26820762D01*
X43449977Y-26868381D01*
X43259500Y-26868381D01*
X43164262Y-26820762D01*
X43069024Y-26725524D01*
X43021405Y-26535048D01*
X43021405Y-26201714D01*
X43069024Y-26011238D01*
X43164262Y-25916000D01*
X43259500Y-25868381D01*
X44116643Y-25868381D02*
X44116643Y-26677905D01*
X44164262Y-26773143D01*
X44211881Y-26820762D01*
X44307119Y-26868381D01*
X44497596Y-26868381D01*
X44592834Y-26820762D01*
X44640453Y-26773143D01*
X44688072Y-26677905D01*
X44688072Y-25868381D01*
X45021405Y-25868381D02*
X45592834Y-25868381D01*
X45307119Y-26868381D02*
X45307119Y-25868381D01*
X41600381Y-25947666D02*
X41124190Y-26281000D01*
X41600381Y-26519095D02*
X40600381Y-26519095D01*
X40600381Y-26138142D01*
X40648000Y-26042904D01*
X40695619Y-25995285D01*
X40790857Y-25947666D01*
X40933714Y-25947666D01*
X41028952Y-25995285D01*
X41076571Y-26042904D01*
X41124190Y-26138142D01*
X41124190Y-26519095D01*
X41600381Y-24995285D02*
X41600381Y-25566714D01*
X41600381Y-25281000D02*
X40600381Y-25281000D01*
X40743238Y-25376238D01*
X40838476Y-25471476D01*
X40886095Y-25566714D01*
X35456834Y-25280881D02*
X35123500Y-24804690D01*
X34885405Y-25280881D02*
X34885405Y-24280881D01*
X35266358Y-24280881D01*
X35361596Y-24328500D01*
X35409215Y-24376119D01*
X35456834Y-24471357D01*
X35456834Y-24614214D01*
X35409215Y-24709452D01*
X35361596Y-24757071D01*
X35266358Y-24804690D01*
X34885405Y-24804690D01*
X35837786Y-24376119D02*
X35885405Y-24328500D01*
X35980643Y-24280881D01*
X36218739Y-24280881D01*
X36313977Y-24328500D01*
X36361596Y-24376119D01*
X36409215Y-24471357D01*
X36409215Y-24566595D01*
X36361596Y-24709452D01*
X35790167Y-25280881D01*
X36409215Y-25280881D01*
X35205143Y-22916999D02*
X34305143Y-22916999D01*
X34948000Y-22616999D01*
X34305143Y-22316999D01*
X35205143Y-22316999D01*
X35119429Y-21374143D02*
X35162286Y-21417000D01*
X35205143Y-21545571D01*
X35205143Y-21631285D01*
X35162286Y-21759857D01*
X35076571Y-21845571D01*
X34990857Y-21888428D01*
X34819429Y-21931285D01*
X34690857Y-21931285D01*
X34519429Y-21888428D01*
X34433714Y-21845571D01*
X34348000Y-21759857D01*
X34305143Y-21631285D01*
X34305143Y-21545571D01*
X34348000Y-21417000D01*
X34390857Y-21374143D01*
X35205143Y-20988428D02*
X34305143Y-20988428D01*
X34305143Y-20645571D01*
X34348000Y-20559857D01*
X34390857Y-20517000D01*
X34476571Y-20474143D01*
X34605143Y-20474143D01*
X34690857Y-20517000D01*
X34733714Y-20559857D01*
X34776571Y-20645571D01*
X34776571Y-20988428D01*
X36988953Y-30122762D02*
X36893715Y-30170381D01*
X36703238Y-30170381D01*
X36608000Y-30122762D01*
X36560381Y-30027524D01*
X36560381Y-29646571D01*
X36608000Y-29551333D01*
X36703238Y-29503714D01*
X36893715Y-29503714D01*
X36988953Y-29551333D01*
X37036572Y-29646571D01*
X37036572Y-29741810D01*
X36560381Y-29837048D01*
X37417524Y-30122762D02*
X37512762Y-30170381D01*
X37703238Y-30170381D01*
X37798477Y-30122762D01*
X37846096Y-30027524D01*
X37846096Y-29979905D01*
X37798477Y-29884667D01*
X37703238Y-29837048D01*
X37560381Y-29837048D01*
X37465143Y-29789429D01*
X37417524Y-29694190D01*
X37417524Y-29646571D01*
X37465143Y-29551333D01*
X37560381Y-29503714D01*
X37703238Y-29503714D01*
X37798477Y-29551333D01*
X38274667Y-29503714D02*
X38274667Y-30503714D01*
X38274667Y-29551333D02*
X38369905Y-29503714D01*
X38560382Y-29503714D01*
X38655620Y-29551333D01*
X38703239Y-29598952D01*
X38750858Y-29694190D01*
X38750858Y-29979905D01*
X38703239Y-30075143D01*
X38655620Y-30122762D01*
X38560382Y-30170381D01*
X38369905Y-30170381D01*
X38274667Y-30122762D01*
X39369905Y-29170381D02*
X39465144Y-29170381D01*
X39560382Y-29218000D01*
X39608001Y-29265619D01*
X39655620Y-29360857D01*
X39703239Y-29551333D01*
X39703239Y-29789429D01*
X39655620Y-29979905D01*
X39608001Y-30075143D01*
X39560382Y-30122762D01*
X39465144Y-30170381D01*
X39369905Y-30170381D01*
X39274667Y-30122762D01*
X39227048Y-30075143D01*
X39179429Y-29979905D01*
X39131810Y-29789429D01*
X39131810Y-29551333D01*
X39179429Y-29360857D01*
X39227048Y-29265619D01*
X39274667Y-29218000D01*
X39369905Y-29170381D01*
X40655620Y-30170381D02*
X40084191Y-30170381D01*
X40369905Y-30170381D02*
X40369905Y-29170381D01*
X40274667Y-29313238D01*
X40179429Y-29408476D01*
X40084191Y-29456095D01*
X34266309Y-42076714D02*
X34266309Y-43076714D01*
X34266309Y-42124333D02*
X34361547Y-42076714D01*
X34552024Y-42076714D01*
X34647262Y-42124333D01*
X34694881Y-42171952D01*
X34742500Y-42267190D01*
X34742500Y-42552905D01*
X34694881Y-42648143D01*
X34647262Y-42695762D01*
X34552024Y-42743381D01*
X34361547Y-42743381D01*
X34266309Y-42695762D01*
X35171071Y-42743381D02*
X35171071Y-42076714D01*
X35171071Y-42267190D02*
X35218690Y-42171952D01*
X35266309Y-42124333D01*
X35361547Y-42076714D01*
X35456786Y-42076714D01*
X36218691Y-42076714D02*
X36218691Y-42886238D01*
X36171072Y-42981476D01*
X36123453Y-43029095D01*
X36028214Y-43076714D01*
X35885357Y-43076714D01*
X35790119Y-43029095D01*
X36218691Y-42695762D02*
X36123453Y-42743381D01*
X35932976Y-42743381D01*
X35837738Y-42695762D01*
X35790119Y-42648143D01*
X35742500Y-42552905D01*
X35742500Y-42267190D01*
X35790119Y-42171952D01*
X35837738Y-42124333D01*
X35932976Y-42076714D01*
X36123453Y-42076714D01*
X36218691Y-42124333D01*
X45283572Y-34996381D02*
X45283572Y-34329714D01*
X45283572Y-33996381D02*
X45235953Y-34044000D01*
X45283572Y-34091619D01*
X45331191Y-34044000D01*
X45283572Y-33996381D01*
X45283572Y-34091619D01*
X45759762Y-34329714D02*
X45759762Y-34996381D01*
X45759762Y-34424952D02*
X45807381Y-34377333D01*
X45902619Y-34329714D01*
X46045477Y-34329714D01*
X46140715Y-34377333D01*
X46188334Y-34472571D01*
X46188334Y-34996381D01*
X46664524Y-34615429D02*
X47426429Y-34615429D01*
X27455762Y-42060715D02*
X27503381Y-41965477D01*
X27503381Y-41775001D01*
X27455762Y-41679762D01*
X27360524Y-41632143D01*
X27312905Y-41632143D01*
X27217667Y-41679762D01*
X27170048Y-41775001D01*
X27170048Y-41917858D01*
X27122429Y-42013096D01*
X27027190Y-42060715D01*
X26979571Y-42060715D01*
X26884333Y-42013096D01*
X26836714Y-41917858D01*
X26836714Y-41775001D01*
X26884333Y-41679762D01*
X27503381Y-41203572D02*
X26836714Y-41203572D01*
X27027190Y-41203572D02*
X26931952Y-41155953D01*
X26884333Y-41108334D01*
X26836714Y-41013096D01*
X26836714Y-40917857D01*
X27503381Y-40441667D02*
X27455762Y-40536905D01*
X27360524Y-40584524D01*
X26503381Y-40584524D01*
M02*
